<svg xmlns="http://www.w3.org/2000/svg" viewBox="0 0 56 56"><path fill="#55ACEE" d="M50.3 16.6v1.5c0 15.2-11.5 32.7-32.6 32.7-6.5 0-12.6-1.4-17.6-4.7.9.1 1.8.2 2.7.2 5.4 0 10.4-2.3 14.2-5.4-5-.1-9.3-3.4-10.7-8 .7.1 1.4.2 2.1.2 1 0 2.1-.1 3.1-.4-5.2-1-9.2-5.7-9.2-11.3v-.1c1.6.8 3.3 1.4 5.2 1.4-3.1-2.1-5.1-5.6-5.1-9.5 0-2.1.6-3.9 1.6-5.6 5.6 6.9 14 11.2 23.5 11.8-.2-.8-.2-1.8-.2-2.7 0-6.3 5.1-11.5 11.5-11.5 3.3 0 6.3 1.4 8.4 3.6 2.6-.5 5.1-1.5 7.2-2.8-.8 2.7-2.7 4.9-5.1 6.4 2.4-.3 4.5-.9 6.6-1.8-1.5 2.4-3.4 4.4-5.6 6z"/></svg>