<?xml version="1.0" encoding="utf-8"?><svg width="1296" height="1296" viewBox="0 0 1296 1296" xmlns="http://www.w3.org/2000/svg" xmlns:xlink="http://www.w3.org/1999/xlink"><svg width="16" height="16" viewBox="-7.5 992.5 16 16" id="bookmark" xmlns="http://www.w3.org/2000/svg"><path fill="#3B5998" d="M5.5 992.5h-10c-.55 0-1 .45-1 1v14.499a.5.5 0 0 0 .82.384l4.859-4.05a.502.502 0 0 1 .641 0l4.859 4.05a.5.5 0 0 0 .82-.384V993.5c.001-.55-.449-1-.999-1z"/></svg><svg width="16" height="16" viewBox="-7.5 992.5 16 16" id="bookmark--dark" x="16" y="16" xmlns="http://www.w3.org/2000/svg"><path d="M5.5 992.5h-10c-.55 0-1 .45-1 1v14.499a.5.5 0 0 0 .82.384l4.859-4.05a.502.502 0 0 1 .641 0l4.859 4.05a.5.5 0 0 0 .82-.384V993.5c.001-.55-.449-1-.999-1z"/></svg><svg width="16" height="16" viewBox="-7.5 992.5 16 16" id="bookmark--light" x="32" y="32" xmlns="http://www.w3.org/2000/svg"><path fill="#FFF" d="M5.5 992.5h-10c-.55 0-1 .45-1 1v14.499a.5.5 0 0 0 .82.384l4.859-4.05a.502.502 0 0 1 .641 0l4.859 4.05a.5.5 0 0 0 .82-.384V993.5c.001-.55-.449-1-.999-1z"/></svg><svg width="16" height="16" viewBox="-239.5 160.5 16 16" id="briefcase--dark" x="48" y="48" xmlns="http://www.w3.org/2000/svg"><path d="M-233.786 163.833h4.571v-1.166h-4.571v1.166zm10.286 5.833v4.374c0 .402-.141.744-.42 1.03-.28.285-.616.43-1.009.43h-13.144c-.393 0-.729-.145-1.009-.43s-.419-.628-.419-1.03v-4.374h6v1.459c0 .158.056.293.169.409a.545.545 0 0 0 .402.173h2.855a.545.545 0 0 0 .402-.173.565.565 0 0 0 .17-.409v-1.459h6.003zm-6.857 0v1.167h-2.285v-1.167h2.285zm6.857-4.373v3.498h-16v-3.498c0-.403.14-.745.419-1.032.28-.284.616-.429 1.009-.429h3.144v-1.457c0-.243.083-.449.25-.62a.822.822 0 0 1 .606-.255h5.144c.237 0 .439.086.606.255a.857.857 0 0 1 .249.62v1.457h3.145c.393 0 .729.145 1.009.429.278.287.419.63.419 1.032z"/></svg><svg width="16" height="16" viewBox="-7.5 992.5 16 16" id="calendar" x="64" y="64" xmlns="http://www.w3.org/2000/svg"><path fill="#AAA" d="M7.333 994.684c.19.044.342.139.459.283a.779.779 0 0 1 .174.5v11.649a.78.78 0 0 1-.174.501.817.817 0 0 1-.459.283l-.133.033a46.88 46.88 0 0 0-.799.133c-.189.033-.406.064-.65.092l-.792.092c-.284.033-.594.065-.933.1-.34.034-.689.062-1.051.084-.36.022-.755.039-1.183.05a50.178 50.178 0 0 1-2.584 0 31.484 31.484 0 0 1-2.234-.134 49.978 49.978 0 0 1-.933-.1l-.792-.092a10.488 10.488 0 0 1-.65-.092 52.068 52.068 0 0 0-.8-.133l-.133-.033a.822.822 0 0 1-.459-.283.775.775 0 0 1-.175-.501v-11.649c0-.188.058-.355.175-.5s.27-.239.459-.283a25.397 25.397 0 0 1 1.5-.234v.718c0 .389.139.708.416.958.278.25.611.375 1 .375a1.035 1.035 0 0 1-.35-.8v-2.134c0-.288.105-.539.316-.75s.461-.316.75-.316.539.105.75.316.316.462.316.75v.584a42.02 42.02 0 0 1 3.2-.034v1.051c0 .389.139.708.417.958.277.25.611.375 1 .375a1.035 1.035 0 0 1-.35-.8v-2.134c0-.288.105-.539.316-.75s.464-.317.753-.317.539.105.75.316.316.462.316.75v.75c1.067.112 1.922.234 2.567.368zM.5 1006.983c2.044 0 4-.155 5.866-.467V998.9H-5.366v7.616a35.54 35.54 0 0 0 5.866.467zm-2.134-1.683h-2.133v-2.133h2.133v2.133zm3.2-5.333v2.133H-.567v-2.133h2.133zm0 5.333H-.567v-2.133h2.133v2.133zm3.201-5.333v2.133H2.634v-2.133h2.133zm0 5.333H2.634v-2.133h2.133v2.133z"/></svg><svg width="16" height="16" viewBox="-7.5 992.5 16 16" id="calendar--blue-green" x="80" y="80" xmlns="http://www.w3.org/2000/svg"><path fill="#00CCCD" d="M7.333 994.684c.19.044.342.139.459.283a.779.779 0 0 1 .174.5v11.649a.78.78 0 0 1-.174.501.817.817 0 0 1-.459.283l-.133.033a46.88 46.88 0 0 0-.799.133c-.189.033-.406.064-.65.092l-.792.092c-.284.033-.594.065-.933.1-.34.034-.689.062-1.051.084-.36.022-.755.039-1.183.05a50.178 50.178 0 0 1-2.584 0 31.484 31.484 0 0 1-2.234-.134 49.978 49.978 0 0 1-.933-.1l-.792-.092a10.488 10.488 0 0 1-.65-.092 52.068 52.068 0 0 0-.8-.133l-.133-.033a.822.822 0 0 1-.459-.283.775.775 0 0 1-.175-.501v-11.649c0-.188.058-.355.175-.5s.27-.239.459-.283a25.397 25.397 0 0 1 1.5-.234v.718c0 .389.139.708.416.958.278.25.611.375 1 .375a1.035 1.035 0 0 1-.35-.8v-2.134c0-.288.105-.539.316-.75s.461-.316.75-.316.539.105.75.316.316.462.316.75v.584a42.02 42.02 0 0 1 3.2-.034v1.051c0 .389.139.708.417.958.277.25.611.375 1 .375a1.035 1.035 0 0 1-.35-.8v-2.134c0-.288.105-.539.316-.75s.464-.317.753-.317.539.105.75.316.316.462.316.75v.75c1.067.112 1.922.234 2.567.368zM.5 1006.983c2.044 0 4-.155 5.866-.467V998.9H-5.366v7.616a35.54 35.54 0 0 0 5.866.467zm-2.134-1.683h-2.133v-2.133h2.133v2.133zm3.2-5.333v2.133H-.567v-2.133h2.133zm0 5.333H-.567v-2.133h2.133v2.133zm3.201-5.333v2.133H2.634v-2.133h2.133zm0 5.333H2.634v-2.133h2.133v2.133z"/></svg><svg width="16" height="16" viewBox="-7.5 992.5 16 16" id="calendar--dark" x="96" y="96" xmlns="http://www.w3.org/2000/svg"><path d="M7.333 994.684c.19.044.342.139.459.283a.779.779 0 0 1 .174.5v11.649a.78.78 0 0 1-.174.501.817.817 0 0 1-.459.283l-.133.033a46.88 46.88 0 0 0-.799.133c-.189.033-.406.064-.65.092l-.792.092c-.284.033-.594.065-.933.1-.34.034-.689.062-1.051.084-.36.022-.755.039-1.183.05a50.178 50.178 0 0 1-2.584 0 31.484 31.484 0 0 1-2.234-.134 49.978 49.978 0 0 1-.933-.1l-.792-.092a10.488 10.488 0 0 1-.65-.092 52.068 52.068 0 0 0-.8-.133l-.133-.033a.822.822 0 0 1-.459-.283.775.775 0 0 1-.175-.501v-11.649c0-.188.058-.355.175-.5s.27-.239.459-.283a25.397 25.397 0 0 1 1.5-.234v.718c0 .389.139.708.416.958.278.25.611.375 1 .375a1.035 1.035 0 0 1-.35-.8v-2.134c0-.288.105-.539.316-.75s.461-.316.75-.316.539.105.75.316.316.462.316.75v.584a42.02 42.02 0 0 1 3.2-.034v1.051c0 .389.139.708.417.958.277.25.611.375 1 .375a1.035 1.035 0 0 1-.35-.8v-2.134c0-.288.105-.539.316-.75s.464-.317.753-.317.539.105.75.316.316.462.316.75v.75c1.067.112 1.922.234 2.567.368zM.5 1006.983c2.044 0 4-.155 5.866-.467V998.9H-5.366v7.616a35.54 35.54 0 0 0 5.866.467zm-2.134-1.683h-2.133v-2.133h2.133v2.133zm3.2-5.333v2.133H-.567v-2.133h2.133zm0 5.333H-.567v-2.133h2.133v2.133zm3.201-5.333v2.133H2.634v-2.133h2.133zm0 5.333H2.634v-2.133h2.133v2.133z"/></svg><svg width="16" height="16" viewBox="-7.5 992.5 16 16" id="calendar--light" x="112" y="112" xmlns="http://www.w3.org/2000/svg"><path fill="#FFF" d="M7.333 994.684c.19.044.342.139.459.283a.779.779 0 0 1 .174.5v11.649a.78.78 0 0 1-.174.501.817.817 0 0 1-.459.283l-.133.033a46.88 46.88 0 0 0-.799.133c-.189.033-.406.064-.65.092l-.792.092c-.284.033-.594.065-.933.1-.34.034-.689.062-1.051.084-.36.022-.755.039-1.183.05a50.178 50.178 0 0 1-2.584 0 31.484 31.484 0 0 1-2.234-.134 49.978 49.978 0 0 1-.933-.1l-.792-.092a10.488 10.488 0 0 1-.65-.092 52.068 52.068 0 0 0-.8-.133l-.133-.033a.822.822 0 0 1-.459-.283.775.775 0 0 1-.175-.501v-11.649c0-.188.058-.355.175-.5s.27-.239.459-.283a25.397 25.397 0 0 1 1.5-.234v.718c0 .389.139.708.416.958.278.25.611.375 1 .375a1.035 1.035 0 0 1-.35-.8v-2.134c0-.288.105-.539.316-.75s.461-.316.75-.316.539.105.75.316.316.462.316.75v.584a42.02 42.02 0 0 1 3.2-.034v1.051c0 .389.139.708.417.958.277.25.611.375 1 .375a1.035 1.035 0 0 1-.35-.8v-2.134c0-.288.105-.539.316-.75s.464-.317.753-.317.539.105.75.316.316.462.316.75v.75c1.067.112 1.922.234 2.567.368zM.5 1006.983c2.044 0 4-.155 5.866-.467V998.9H-5.366v7.616a35.54 35.54 0 0 0 5.866.467zm-2.134-1.683h-2.133v-2.133h2.133v2.133zm3.2-5.333v2.133H-.567v-2.133h2.133zm0 5.333H-.567v-2.133h2.133v2.133zm3.201-5.333v2.133H2.634v-2.133h2.133zm0 5.333H2.634v-2.133h2.133v2.133z"/></svg><svg width="16" height="16" viewBox="-7.5 992.5 16 16" id="clock" x="128" y="128" xmlns="http://www.w3.org/2000/svg"><path fill="#AAA" d="M-3.508 993.575C-2.28 992.858-.944 992.5.5 992.5s2.78.358 4.008 1.075a7.982 7.982 0 0 1 2.917 2.916c.717 1.229 1.075 2.564 1.075 4.009s-.358 2.78-1.075 4.009a7.975 7.975 0 0 1-2.917 2.916c-1.228.717-2.564 1.075-4.008 1.075s-2.781-.358-4.008-1.075a7.982 7.982 0 0 1-2.917-2.916c-.717-1.229-1.075-2.564-1.075-4.009s.358-2.78 1.075-4.009a7.99 7.99 0 0 1 2.917-2.916zM-3.7 1004.7c1.178 1.178 2.578 1.767 4.2 1.767 1.622 0 3.022-.589 4.2-1.767 1.177-1.178 1.767-2.578 1.767-4.2s-.59-3.022-1.767-4.2c-1.178-1.178-2.578-1.767-4.2-1.767-1.623 0-3.022.589-4.2 1.767s-1.767 2.578-1.767 4.2.589 3.022 1.767 4.2zm7.267-1.066a.84.84 0 0 1-.592.232.84.84 0 0 1-.592-.232l-2.633-2.101c-.233-.211-.339-.461-.317-.75l.184-4.233a.866.866 0 0 1 .283-.616.834.834 0 0 1 .633-.233c.233.011.431.1.592.267s.247.361.258.583l.167 3.783 2.067 2.033a.85.85 0 0 1 .233.643.88.88 0 0 1-.283.624z"/></svg><svg width="16" height="16" viewBox="-7.5 992.5 16 16" id="clock--dark" x="144" y="144" xmlns="http://www.w3.org/2000/svg"><path d="M-3.508 993.575C-2.28 992.858-.944 992.5.5 992.5s2.78.358 4.008 1.075a7.982 7.982 0 0 1 2.917 2.916c.717 1.229 1.075 2.564 1.075 4.009s-.358 2.78-1.075 4.009a7.975 7.975 0 0 1-2.917 2.916c-1.228.717-2.564 1.075-4.008 1.075s-2.781-.358-4.008-1.075a7.982 7.982 0 0 1-2.917-2.916c-.717-1.229-1.075-2.564-1.075-4.009s.358-2.78 1.075-4.009a7.99 7.99 0 0 1 2.917-2.916zM-3.7 1004.7c1.178 1.178 2.578 1.767 4.2 1.767 1.622 0 3.022-.589 4.2-1.767 1.177-1.178 1.767-2.578 1.767-4.2s-.59-3.022-1.767-4.2c-1.178-1.178-2.578-1.767-4.2-1.767-1.623 0-3.022.589-4.2 1.767s-1.767 2.578-1.767 4.2.589 3.022 1.767 4.2zm7.267-1.066a.84.84 0 0 1-.592.232.84.84 0 0 1-.592-.232l-2.633-2.101c-.233-.211-.339-.461-.317-.75l.184-4.233a.866.866 0 0 1 .283-.616.834.834 0 0 1 .633-.233c.233.011.431.1.592.267s.247.361.258.583l.167 3.783 2.067 2.033a.85.85 0 0 1 .233.643.88.88 0 0 1-.283.624z"/></svg><svg width="16" height="16" viewBox="-7.5 992.5 16 16" id="clock--light" x="160" y="160" xmlns="http://www.w3.org/2000/svg"><path fill="#FFF" d="M-3.508 993.575C-2.28 992.858-.944 992.5.5 992.5s2.78.358 4.008 1.075a7.982 7.982 0 0 1 2.917 2.916c.717 1.229 1.075 2.564 1.075 4.009s-.358 2.78-1.075 4.009a7.975 7.975 0 0 1-2.917 2.916c-1.228.717-2.564 1.075-4.008 1.075s-2.781-.358-4.008-1.075a7.982 7.982 0 0 1-2.917-2.916c-.717-1.229-1.075-2.564-1.075-4.009s.358-2.78 1.075-4.009a7.99 7.99 0 0 1 2.917-2.916zM-3.7 1004.7c1.178 1.178 2.578 1.767 4.2 1.767 1.622 0 3.022-.589 4.2-1.767 1.177-1.178 1.767-2.578 1.767-4.2s-.59-3.022-1.767-4.2c-1.178-1.178-2.578-1.767-4.2-1.767-1.623 0-3.022.589-4.2 1.767s-1.767 2.578-1.767 4.2.589 3.022 1.767 4.2zm7.267-1.066a.84.84 0 0 1-.592.232.84.84 0 0 1-.592-.232l-2.633-2.101c-.233-.211-.339-.461-.317-.75l.184-4.233a.866.866 0 0 1 .283-.616.834.834 0 0 1 .633-.233c.233.011.431.1.592.267s.247.361.258.583l.167 3.783 2.067 2.033a.85.85 0 0 1 .233.643.88.88 0 0 1-.283.624z"/></svg><svg width="16" height="16" viewBox="-7.5 992.5 16 16" id="comments" x="176" y="176" xmlns="http://www.w3.org/2000/svg"><path fill="#AAA" d="M8.268 995.732c.155.977.232 2.012.232 3.106 0 1.084-.077 2.108-.232 3.072-.095.631-.443 1.208-1.044 1.732-.602.523-1.235.82-1.902.894-1.31.131-2.601.202-3.875.213l-3.411 3.304a.534.534 0 0 1-.393.16.98.98 0 0 1-.232-.035c-.226-.094-.339-.272-.339-.535v-2.928l-1.393-.108c-.655-.07-1.286-.378-1.893-.919-.607-.543-.964-1.134-1.071-1.777a22.482 22.482 0 0 1 0-6.179c.107-.644.464-1.234 1.071-1.776s1.238-.848 1.893-.92a48.68 48.68 0 0 1 4.821-.25c1.547 0 3.154.084 4.821.25.654.072 1.286.378 1.893.92s.958 1.133 1.054 1.776z"/></svg><svg width="16" height="16" viewBox="-7.5 992.5 16 16" id="comments--dark" x="192" y="192" xmlns="http://www.w3.org/2000/svg"><path d="M8.268 995.732c.155.977.232 2.012.232 3.106 0 1.084-.077 2.108-.232 3.072-.095.631-.443 1.208-1.044 1.732-.602.523-1.235.82-1.902.894-1.31.131-2.601.202-3.875.213l-3.411 3.304a.534.534 0 0 1-.393.16.98.98 0 0 1-.232-.035c-.226-.094-.339-.272-.339-.535v-2.928l-1.393-.108c-.655-.07-1.286-.378-1.893-.919-.607-.543-.964-1.134-1.071-1.777a22.482 22.482 0 0 1 0-6.179c.107-.644.464-1.234 1.071-1.776s1.238-.848 1.893-.92a48.68 48.68 0 0 1 4.821-.25c1.547 0 3.154.084 4.821.25.654.072 1.286.378 1.893.92s.958 1.133 1.054 1.776z"/></svg><svg width="16" height="16" viewBox="-7.5 992.5 16 16" id="comments--light" x="208" y="208" xmlns="http://www.w3.org/2000/svg"><path fill="#FFF" d="M8.268 995.732c.155.977.232 2.012.232 3.106 0 1.084-.077 2.108-.232 3.072-.095.631-.443 1.208-1.044 1.732-.602.523-1.235.82-1.902.894-1.31.131-2.601.202-3.875.213l-3.411 3.304a.534.534 0 0 1-.393.16.98.98 0 0 1-.232-.035c-.226-.094-.339-.272-.339-.535v-2.928l-1.393-.108c-.655-.07-1.286-.378-1.893-.919-.607-.543-.964-1.134-1.071-1.777a22.482 22.482 0 0 1 0-6.179c.107-.644.464-1.234 1.071-1.776s1.238-.848 1.893-.92a48.68 48.68 0 0 1 4.821-.25c1.547 0 3.154.084 4.821.25.654.072 1.286.378 1.893.92s.958 1.133 1.054 1.776z"/></svg><svg width="16" height="16" viewBox="0.5 320.5 16 16" id="cookie" x="224" y="224" xmlns="http://www.w3.org/2000/svg"><path fill="#DA6" d="M14.992 328.073c-.52-.103-1.185.277-1.663.078-.488-.2-.69-.94-1.12-1.228-.438-.293-1.196-.196-1.566-.566-.37-.37-.273-1.128-.565-1.565-.29-.432-1.03-.632-1.23-1.12-.2-.478.18-1.14.077-1.66-.07-.35-.38-.684-.565-1.033a.76.76 0 0 0-.753-.417c-4.144.46-7.334 4.076-7.096 8.395.222 4.017 3.518 7.312 7.534 7.534 4.318.237 7.936-2.953 8.396-7.097a.76.76 0 0 0-.417-.752c-.352-.186-.684-.497-1.035-.567z"/><circle fill="#843" cx="4" cy="326.5" r="1"/><circle fill="#843" cx="8.5" cy="329" r="1"/><circle fill="#843" cx="13" cy="330.999" r="1"/><circle fill="#843" cx="6.5" cy="332.499" r="1"/><circle fill="#DA6" cx="13.5" cy="324.5" r="1"/><circle fill="#DA6" cx="15.5" cy="321.5" r="1"/></svg><svg width="16" height="16" viewBox="-7.5 992.5 16 16" id="facebook" x="240" y="240" xmlns="http://www.w3.org/2000/svg"><path fill="#3B5998" d="M8.5 993.5v14c0 .547-.453 1-1 1h-4v-6.219h2l.336-2.305H3.5v-1.812c0-.656.336-1.031 1-1.031H6v-2.078s-.672-.109-1.641-.109c-2.195 0-3.305 1.219-3.305 3.039v1.992h-2v2.305h2v6.219H-6.5c-.547 0-1-.453-1-1v-14c0-.547.453-1 1-1h14c.547-.001 1 .452 1 .999z"/></svg><svg width="16" height="16" viewBox="-7.5 992.5 16 16" id="facebook--dark" x="256" y="256" xmlns="http://www.w3.org/2000/svg"><path d="M8.5 993.5v14c0 .547-.453 1-1 1h-4v-6.219h2l.336-2.305H3.5v-1.812c0-.656.336-1.031 1-1.031H6v-2.078s-.672-.109-1.641-.109c-2.195 0-3.305 1.219-3.305 3.039v1.992h-2v2.305h2v6.219H-6.5c-.547 0-1-.453-1-1v-14c0-.547.453-1 1-1h14c.547-.001 1 .452 1 .999z"/></svg><svg width="16" height="16" viewBox="-7.5 992.5 16 16" id="facebook--light" x="272" y="272" xmlns="http://www.w3.org/2000/svg"><path fill="#FFF" d="M8.5 993.5v14c0 .547-.453 1-1 1h-4v-6.219h2l.336-2.305H3.5v-1.812c0-.656.336-1.031 1-1.031H6v-2.078s-.672-.109-1.641-.109c-2.195 0-3.305 1.219-3.305 3.039v1.992h-2v2.305h2v6.219H-6.5c-.547 0-1-.453-1-1v-14c0-.547.453-1 1-1h14c.547-.001 1 .452 1 .999z"/></svg><svg viewBox="0 0 16 16" width="16" height="16" id="flipboard" x="288" y="288" xmlns="http://www.w3.org/2000/svg"><path fill="#F52828" d="M0 0v16h5.333v-5.333h5.334V5.333H16V0z"/></svg><svg viewBox="0 0 16 16" width="16" height="16" id="flipboard--dark" x="304" y="304" xmlns="http://www.w3.org/2000/svg"><path d="M0 0v16h5.333v-5.333h5.334V5.333H16V0z"/></svg><svg viewBox="0 0 16 16" width="16" height="16" id="flipboard--light" x="320" y="320" xmlns="http://www.w3.org/2000/svg"><path fill="#FFF" d="M0 0v16h5.333v-5.333h5.334V5.333H16V0z"/></svg><svg width="16" height="16" viewBox="-7.5 992.5 16 16" id="google" x="336" y="336" xmlns="http://www.w3.org/2000/svg"><path fill="#DC4E41" d="M8.5 999.833H6.833v-1.666H5.5v1.666H3.833v1.334H5.5v1.666h1.333v-1.666H8.5M-2.167 999.5v2.08H.74c-.224 1.253-1.31 2.167-2.907 2.167-1.76 0-3.19-1.49-3.19-3.251 0-1.76 1.43-3.246 3.19-3.246.793 0 1.503.273 2.063.807v.003l1.503-1.503c-.923-.86-2.126-1.39-3.566-1.39-2.947 0-5.333 2.387-5.333 5.333s2.387 5.333 5.333 5.333c3.08 0 5.12-2.166 5.12-5.213 0-.39-.037-.764-.104-1.12h-5.016z"/></svg><svg width="16" height="16" viewBox="-7.5 992.5 16 16" id="google--dark" x="352" y="352" xmlns="http://www.w3.org/2000/svg"><path d="M8.5 999.833H6.833v-1.666H5.5v1.666H3.833v1.334H5.5v1.666h1.333v-1.666H8.5M-2.167 999.5v2.08H.74c-.224 1.253-1.31 2.167-2.907 2.167-1.76 0-3.19-1.49-3.19-3.251 0-1.76 1.43-3.246 3.19-3.246.793 0 1.503.273 2.063.807v.003l1.503-1.503c-.923-.86-2.126-1.39-3.566-1.39-2.947 0-5.333 2.387-5.333 5.333s2.387 5.333 5.333 5.333c3.08 0 5.12-2.166 5.12-5.213 0-.39-.037-.764-.104-1.12h-5.016z"/></svg><svg width="16" height="16" viewBox="-7.5 992.5 16 16" id="google--light" x="368" y="368" xmlns="http://www.w3.org/2000/svg"><path fill="#FFF" d="M8.5 999.833H6.833v-1.666H5.5v1.666H3.833v1.334H5.5v1.666h1.333v-1.666H8.5M-2.167 999.5v2.08H.74c-.224 1.253-1.31 2.167-2.907 2.167-1.76 0-3.19-1.49-3.19-3.251 0-1.76 1.43-3.246 3.19-3.246.793 0 1.503.273 2.063.807v.003l1.503-1.503c-.923-.86-2.126-1.39-3.566-1.39-2.947 0-5.333 2.387-5.333 5.333s2.387 5.333 5.333 5.333c3.08 0 5.12-2.166 5.12-5.213 0-.39-.037-.764-.104-1.12h-5.016z"/></svg><svg width="16" height="16" viewBox="-7.5 992.5 16 16" id="instagram" x="384" y="384" xmlns="http://www.w3.org/2000/svg"><path fill="#3F729B" d="M8.5 994.836v11.328a2.337 2.337 0 0 1-2.336 2.336H-5.164a2.337 2.337 0 0 1-2.336-2.336v-11.328a2.337 2.337 0 0 1 2.336-2.336H6.164a2.337 2.337 0 0 1 2.336 2.336zM6.836 999.5H5.062c.07.32.102.656.102 1 0 2.578-2.086 4.664-4.664 4.664s-4.664-2.086-4.664-4.664c0-.344.031-.68.102-1h-1.773v7c0 .188.148.336.336.336h12a.333.333 0 0 0 .336-.336v-7zm-9.336 1a3.001 3.001 0 0 0 6 0 3.001 3.001 0 0 0-6 0zm9.336-6a.333.333 0 0 0-.336-.336h-2a.333.333 0 0 0-.336.336v2c0 .188.148.336.336.336h2a.333.333 0 0 0 .336-.336v-2z"/></svg><svg width="16" height="16" viewBox="-7.5 992.5 16 16" id="instagram--dark" x="400" y="400" xmlns="http://www.w3.org/2000/svg"><path d="M8.5 994.836v11.328a2.337 2.337 0 0 1-2.336 2.336H-5.164a2.337 2.337 0 0 1-2.336-2.336v-11.328a2.337 2.337 0 0 1 2.336-2.336H6.164a2.337 2.337 0 0 1 2.336 2.336zM6.836 999.5H5.062c.07.32.102.656.102 1 0 2.578-2.086 4.664-4.664 4.664s-4.664-2.086-4.664-4.664c0-.344.031-.68.102-1h-1.773v7c0 .188.148.336.336.336h12a.333.333 0 0 0 .336-.336v-7zm-9.336 1a3.001 3.001 0 0 0 6 0 3.001 3.001 0 0 0-6 0zm9.336-6a.333.333 0 0 0-.336-.336h-2a.333.333 0 0 0-.336.336v2c0 .188.148.336.336.336h2a.333.333 0 0 0 .336-.336v-2z"/></svg><svg width="16" height="16" viewBox="-7.5 992.5 16 16" id="instagram--light" x="416" y="416" xmlns="http://www.w3.org/2000/svg"><path fill="#FFF" d="M8.5 994.836v11.328a2.337 2.337 0 0 1-2.336 2.336H-5.164a2.337 2.337 0 0 1-2.336-2.336v-11.328a2.337 2.337 0 0 1 2.336-2.336H6.164a2.337 2.337 0 0 1 2.336 2.336zM6.836 999.5H5.062c.07.32.102.656.102 1 0 2.578-2.086 4.664-4.664 4.664s-4.664-2.086-4.664-4.664c0-.344.031-.68.102-1h-1.773v7c0 .188.148.336.336.336h12a.333.333 0 0 0 .336-.336v-7zm-9.336 1a3.001 3.001 0 0 0 6 0 3.001 3.001 0 0 0-6 0zm9.336-6a.333.333 0 0 0-.336-.336h-2a.333.333 0 0 0-.336.336v2c0 .188.148.336.336.336h2a.333.333 0 0 0 .336-.336v-2z"/></svg><svg width="16" height="16" viewBox="-7.5 992.5 16 16" id="linkedin" x="432" y="432" xmlns="http://www.w3.org/2000/svg"><path fill="#0077B5" d="M-5.516 996.331h-.024c-1.179 0-1.96-.812-1.96-1.835 0-1.032.797-1.828 2.016-1.828 1.203 0 1.969.796 1.984 1.828 0 1.023-.781 1.835-2.016 1.835zm1.68 1.665v10.336h-3.329v-10.336h3.329zm5.336 10.336h-3.336v-8s-.055-1.985-.055-2.336H1.39l.109 1.43c.664-1 1.664-1.758 3-1.758 2.336 0 4 1.664 4 4.664v6H5.164v-5.665c0-1.671-.812-2.335-1.812-2.335s-1.852.664-1.852 2v6z"/></svg><svg width="16" height="16" viewBox="-7.5 992.5 16 16" id="linkedin--dark" x="448" y="448" xmlns="http://www.w3.org/2000/svg"><path d="M-5.516 996.331h-.024c-1.179 0-1.96-.812-1.96-1.835 0-1.032.797-1.828 2.016-1.828 1.203 0 1.969.796 1.984 1.828 0 1.023-.781 1.835-2.016 1.835zm1.68 1.665v10.336h-3.329v-10.336h3.329zm5.336 10.336h-3.336v-8s-.055-1.985-.055-2.336H1.39l.109 1.43c.664-1 1.664-1.758 3-1.758 2.336 0 4 1.664 4 4.664v6H5.164v-5.665c0-1.671-.812-2.335-1.812-2.335s-1.852.664-1.852 2v6z"/></svg><svg width="16" height="16" viewBox="-7.5 992.5 16 16" id="linkedin--light" x="464" y="464" xmlns="http://www.w3.org/2000/svg"><path fill="#FFF" d="M-5.516 996.331h-.024c-1.179 0-1.96-.812-1.96-1.835 0-1.032.797-1.828 2.016-1.828 1.203 0 1.969.796 1.984 1.828 0 1.023-.781 1.835-2.016 1.835zm1.68 1.665v10.336h-3.329v-10.336h3.329zm5.336 10.336h-3.336v-8s-.055-1.985-.055-2.336H1.39l.109 1.43c.664-1 1.664-1.758 3-1.758 2.336 0 4 1.664 4 4.664v6H5.164v-5.665c0-1.671-.812-2.335-1.812-2.335s-1.852.664-1.852 2v6z"/></svg><svg width="16" height="16" viewBox="-7.5 992.5 16 16" id="location" x="480" y="480" xmlns="http://www.w3.org/2000/svg"><path fill="#AAA" d="M-3.643 994.302C-2.493 993.1-1.112 992.5.5 992.5c1.612 0 2.994.6 4.145 1.802 1.151 1.2 1.725 2.646 1.725 4.335 0 .856-.172 1.766-.518 2.727-.344.962-.76 1.821-1.25 2.577a33.1 33.1 0 0 1-1.466 2.093c-.491.639-.907 1.131-1.251 1.475l-.518.517c-.367.323-.67.481-.909.476-.238-.005-.532-.163-.875-.476a29.082 29.082 0 0 1-.534-.549c-.223-.233-.619-.707-1.192-1.418a20.19 20.19 0 0 1-1.51-2.134c-.434-.712-.828-1.557-1.184-2.535-.355-.979-.533-1.896-.533-2.752 0-1.691.576-3.136 1.727-4.336zm2.185 6.027c.537.54 1.192.81 1.958.81.768 0 1.422-.27 1.968-.81a2.65 2.65 0 0 0 .816-1.96c0-.767-.271-1.422-.816-1.966a2.68 2.68 0 0 0-1.968-.818c-.766 0-1.421.272-1.958.818a2.692 2.692 0 0 0-.809 1.966 2.66 2.66 0 0 0 .809 1.96z"/></svg><svg width="16" height="16" viewBox="-7.5 992.5 16 16" id="location--blue-green" x="496" y="496" xmlns="http://www.w3.org/2000/svg"><path fill="#00CCCD" d="M-3.643 994.302C-2.493 993.1-1.112 992.5.5 992.5c1.612 0 2.994.6 4.145 1.802 1.151 1.2 1.725 2.646 1.725 4.335 0 .856-.172 1.766-.518 2.727-.344.962-.76 1.821-1.25 2.577a33.1 33.1 0 0 1-1.466 2.093c-.491.639-.907 1.131-1.251 1.475l-.518.517c-.367.323-.67.481-.909.476-.238-.005-.532-.163-.875-.476a29.082 29.082 0 0 1-.534-.549c-.223-.233-.619-.707-1.192-1.418a20.19 20.19 0 0 1-1.51-2.134c-.434-.712-.828-1.557-1.184-2.535-.355-.979-.533-1.896-.533-2.752 0-1.691.576-3.136 1.727-4.336zm2.185 6.027c.537.54 1.192.81 1.958.81.768 0 1.422-.27 1.968-.81a2.65 2.65 0 0 0 .816-1.96c0-.767-.271-1.422-.816-1.966a2.68 2.68 0 0 0-1.968-.818c-.766 0-1.421.272-1.958.818a2.692 2.692 0 0 0-.809 1.966 2.66 2.66 0 0 0 .809 1.96z"/></svg><svg width="16" height="16" viewBox="-7.5 992.5 16 16" id="location--dark" x="512" y="512" xmlns="http://www.w3.org/2000/svg"><path d="M-3.643 994.302C-2.493 993.1-1.112 992.5.5 992.5c1.612 0 2.994.6 4.145 1.802 1.151 1.2 1.725 2.646 1.725 4.335 0 .856-.172 1.766-.518 2.727-.344.962-.76 1.821-1.25 2.577a33.1 33.1 0 0 1-1.466 2.093c-.491.639-.907 1.131-1.251 1.475l-.518.517c-.367.323-.67.481-.909.476-.238-.005-.532-.163-.875-.476a29.082 29.082 0 0 1-.534-.549c-.223-.233-.619-.707-1.192-1.418a20.19 20.19 0 0 1-1.51-2.134c-.434-.712-.828-1.557-1.184-2.535-.355-.979-.533-1.896-.533-2.752 0-1.691.576-3.136 1.727-4.336zm2.185 6.027c.537.54 1.192.81 1.958.81.768 0 1.422-.27 1.968-.81a2.65 2.65 0 0 0 .816-1.96c0-.767-.271-1.422-.816-1.966a2.68 2.68 0 0 0-1.968-.818c-.766 0-1.421.272-1.958.818a2.692 2.692 0 0 0-.809 1.966 2.66 2.66 0 0 0 .809 1.96z"/></svg><svg width="16" height="16" viewBox="-7.5 992.5 16 16" id="location--light" x="528" y="528" xmlns="http://www.w3.org/2000/svg"><path fill="#FFF" d="M-3.643 994.302C-2.493 993.1-1.112 992.5.5 992.5c1.612 0 2.994.6 4.145 1.802 1.151 1.2 1.725 2.646 1.725 4.335 0 .856-.172 1.766-.518 2.727-.344.962-.76 1.821-1.25 2.577a33.1 33.1 0 0 1-1.466 2.093c-.491.639-.907 1.131-1.251 1.475l-.518.517c-.367.323-.67.481-.909.476-.238-.005-.532-.163-.875-.476a29.082 29.082 0 0 1-.534-.549c-.223-.233-.619-.707-1.192-1.418a20.19 20.19 0 0 1-1.51-2.134c-.434-.712-.828-1.557-1.184-2.535-.355-.979-.533-1.896-.533-2.752 0-1.691.576-3.136 1.727-4.336zm2.185 6.027c.537.54 1.192.81 1.958.81.768 0 1.422-.27 1.968-.81a2.65 2.65 0 0 0 .816-1.96c0-.767-.271-1.422-.816-1.966a2.68 2.68 0 0 0-1.968-.818c-.766 0-1.421.272-1.958.818a2.692 2.692 0 0 0-.809 1.966 2.66 2.66 0 0 0 .809 1.96z"/></svg><svg width="16" height="16" viewBox="-7.5 992.5 16 16" id="mail" x="544" y="544" xmlns="http://www.w3.org/2000/svg"><path fill="#AAA" d="M.5 1001.5l-8-6c0-.555.446-1 1-1h14c.554 0 1 .445 1 1l-8 6zm0 1.798l8-6.001v8.203c0 .555-.446 1-1 1h-14c-.554 0-1-.445-1-1v-8.203l8 6.001z"/></svg><svg width="16" height="16" viewBox="-7.5 992.5 16 16" id="mail--dark" x="560" y="560" xmlns="http://www.w3.org/2000/svg"><path d="M.5 1001.5l-8-6c0-.555.446-1 1-1h14c.554 0 1 .445 1 1l-8 6zm0 1.798l8-6.001v8.203c0 .555-.446 1-1 1h-14c-.554 0-1-.445-1-1v-8.203l8 6.001z"/></svg><svg width="16" height="16" viewBox="-7.5 992.5 16 16" id="mail--light" x="576" y="576" xmlns="http://www.w3.org/2000/svg"><path fill="#FFF" d="M.5 1001.5l-8-6c0-.555.446-1 1-1h14c.554 0 1 .445 1 1l-8 6zm0 1.798l8-6.001v8.203c0 .555-.446 1-1 1h-14c-.554 0-1-.445-1-1v-8.203l8 6.001z"/></svg><svg width="16" height="16" viewBox="-7.5 992.5 16 16" id="more" x="592" y="592" xmlns="http://www.w3.org/2000/svg"><g fill="#AAA"><circle cx=".5" cy="1000.5" r="1.98"/><circle cx="-5.447" cy="1000.5" r="1.98"/><circle cx="6.447" cy="1000.5" r="1.98"/></g></svg><svg width="16" height="16" viewBox="-7.5 992.5 16 16" id="more--dark" x="608" y="608" xmlns="http://www.w3.org/2000/svg"><circle cx=".5" cy="1000.5" r="1.98"/><circle cx="-5.447" cy="1000.5" r="1.98"/><circle cx="6.447" cy="1000.5" r="1.98"/></svg><svg width="16" height="16" viewBox="-7.5 992.5 16 16" id="more--light" x="624" y="624" xmlns="http://www.w3.org/2000/svg"><g fill="#FFF"><circle cx=".5" cy="1000.5" r="1.98"/><circle cx="-5.447" cy="1000.5" r="1.98"/><circle cx="6.447" cy="1000.5" r="1.98"/></g></svg><svg width="16" height="16" viewBox="-7.5 992.5 16 16" id="pinterest" x="640" y="640" xmlns="http://www.w3.org/2000/svg"><path fill="#CC2127" d="M6.688 997.759c0 3.609-2.001 6.297-4.946 6.297-1 0-1.93-.516-2.258-1.125 0 0-.523 2.109-.648 2.516-.391 1.445-1.555 2.891-1.649 3-.078.094-.203.055-.227-.038-.016-.188-.312-2.017.039-3.501.164-.742 1.164-5 1.164-5s-.273-.594-.273-1.461c0-1.376.773-2.376 1.757-2.376.836 0 1.243.617 1.243 1.376 0 .835-.539 2.094-.821 3.258-.219.984.5 1.781 1.469 1.781 1.742 0 2.906-2.242 2.906-4.891 0-2.024-1.352-3.524-3.813-3.524-2.796 0-4.539 2.079-4.539 4.391 0 .82.243 1.376.61 1.821.164.203.188.273.132.5-.039.18-.148.586-.188.733-.055.243-.242.321-.461.243-1.281-.539-1.875-1.945-1.875-3.516 0-2.609 2.188-5.743 6.555-5.743 3.526 0 5.823 2.54 5.823 5.259z"/></svg><svg width="16" height="16" viewBox="-7.5 992.5 16 16" id="pinterest--dark" x="656" y="656" xmlns="http://www.w3.org/2000/svg"><path d="M6.688 997.759c0 3.609-2.001 6.297-4.946 6.297-1 0-1.93-.516-2.258-1.125 0 0-.523 2.109-.648 2.516-.391 1.445-1.555 2.891-1.649 3-.078.094-.203.055-.227-.038-.016-.188-.312-2.017.039-3.501.164-.742 1.164-5 1.164-5s-.273-.594-.273-1.461c0-1.376.773-2.376 1.757-2.376.836 0 1.243.617 1.243 1.376 0 .835-.539 2.094-.821 3.258-.219.984.5 1.781 1.469 1.781 1.742 0 2.906-2.242 2.906-4.891 0-2.024-1.352-3.524-3.813-3.524-2.796 0-4.539 2.079-4.539 4.391 0 .82.243 1.376.61 1.821.164.203.188.273.132.5-.039.18-.148.586-.188.733-.055.243-.242.321-.461.243-1.281-.539-1.875-1.945-1.875-3.516 0-2.609 2.188-5.743 6.555-5.743 3.526 0 5.823 2.54 5.823 5.259z"/></svg><svg width="16" height="16" viewBox="-7.5 992.5 16 16" id="pinterest--light" x="672" y="672" xmlns="http://www.w3.org/2000/svg"><path fill="#FFF" d="M6.688 997.759c0 3.609-2.001 6.297-4.946 6.297-1 0-1.93-.516-2.258-1.125 0 0-.523 2.109-.648 2.516-.391 1.445-1.555 2.891-1.649 3-.078.094-.203.055-.227-.038-.016-.188-.312-2.017.039-3.501.164-.742 1.164-5 1.164-5s-.273-.594-.273-1.461c0-1.376.773-2.376 1.757-2.376.836 0 1.243.617 1.243 1.376 0 .835-.539 2.094-.821 3.258-.219.984.5 1.781 1.469 1.781 1.742 0 2.906-2.242 2.906-4.891 0-2.024-1.352-3.524-3.813-3.524-2.796 0-4.539 2.079-4.539 4.391 0 .82.243 1.376.61 1.821.164.203.188.273.132.5-.039.18-.148.586-.188.733-.055.243-.242.321-.461.243-1.281-.539-1.875-1.945-1.875-3.516 0-2.609 2.188-5.743 6.555-5.743 3.526 0 5.823 2.54 5.823 5.259z"/></svg><svg width="16" height="16" viewBox="-7.5 992.5 16 16" id="push" x="688" y="688" xmlns="http://www.w3.org/2000/svg"><path fill="#AAA" d="M7.571 1003.934c.312.257.439.583.384.984-.056.398-.262.677-.618.832l-.083.033a3.628 3.628 0 0 1-.208.075l-.317.109c-.128.044-.27.088-.424.132-.156.045-.329.092-.517.142a12.48 12.48 0 0 1-.616.15c-.223.05-.456.101-.701.15s-.511.094-.799.133a31.92 31.92 0 0 1-.884.108c-.145.5-.428.911-.85 1.233-.423.323-.9.483-1.434.483-.533 0-1.011-.16-1.433-.483a2.333 2.333 0 0 1-.85-1.233c-1.745-.178-3.256-.522-4.533-1.033-.378-.167-.595-.449-.65-.85-.034-.4.1-.723.4-.967.056-.033.15-.114.284-.242.133-.127.322-.358.566-.691.244-.333.473-.699.684-1.1s.395-.917.55-1.551a8.315 8.315 0 0 0 .233-1.983c0-.933.097-1.755.292-2.466.194-.711.444-1.279.75-1.7a3.759 3.759 0 0 1 1.099-1.025c.428-.261.85-.438 1.267-.533a6.09 6.09 0 0 1 1.342-.142c.478 0 .925.048 1.342.142.417.095.839.272 1.267.533.428.262.794.604 1.099 1.025.306.421.556.989.75 1.7.195.711.292 1.533.292 2.466 0 .688.077 1.351.233 1.983.155.634.338 1.153.55 1.559.211.406.438.772.684 1.101.244.327.434.556.566.683.134.128.228.209.283.243z"/></svg><svg width="16" height="16" viewBox="-7.5 992.5 16 16" id="push--dark" x="704" y="704" xmlns="http://www.w3.org/2000/svg"><path d="M7.571 1003.934c.312.257.439.583.384.984-.056.398-.262.677-.618.832l-.083.033a3.628 3.628 0 0 1-.208.075l-.317.109c-.128.044-.27.088-.424.132-.156.045-.329.092-.517.142a12.48 12.48 0 0 1-.616.15c-.223.05-.456.101-.701.15s-.511.094-.799.133a31.92 31.92 0 0 1-.884.108c-.145.5-.428.911-.85 1.233-.423.323-.9.483-1.434.483-.533 0-1.011-.16-1.433-.483a2.333 2.333 0 0 1-.85-1.233c-1.745-.178-3.256-.522-4.533-1.033-.378-.167-.595-.449-.65-.85-.034-.4.1-.723.4-.967.056-.033.15-.114.284-.242.133-.127.322-.358.566-.691.244-.333.473-.699.684-1.1s.395-.917.55-1.551a8.315 8.315 0 0 0 .233-1.983c0-.933.097-1.755.292-2.466.194-.711.444-1.279.75-1.7a3.759 3.759 0 0 1 1.099-1.025c.428-.261.85-.438 1.267-.533a6.09 6.09 0 0 1 1.342-.142c.478 0 .925.048 1.342.142.417.095.839.272 1.267.533.428.262.794.604 1.099 1.025.306.421.556.989.75 1.7.195.711.292 1.533.292 2.466 0 .688.077 1.351.233 1.983.155.634.338 1.153.55 1.559.211.406.438.772.684 1.101.244.327.434.556.566.683.134.128.228.209.283.243z"/></svg><svg width="16" height="16" viewBox="-7.5 992.5 16 16" id="push--light" x="720" y="720" xmlns="http://www.w3.org/2000/svg"><path fill="#FFF" d="M7.571 1003.934c.312.257.439.583.384.984-.056.398-.262.677-.618.832l-.083.033a3.628 3.628 0 0 1-.208.075l-.317.109c-.128.044-.27.088-.424.132-.156.045-.329.092-.517.142a12.48 12.48 0 0 1-.616.15c-.223.05-.456.101-.701.15s-.511.094-.799.133a31.92 31.92 0 0 1-.884.108c-.145.5-.428.911-.85 1.233-.423.323-.9.483-1.434.483-.533 0-1.011-.16-1.433-.483a2.333 2.333 0 0 1-.85-1.233c-1.745-.178-3.256-.522-4.533-1.033-.378-.167-.595-.449-.65-.85-.034-.4.1-.723.4-.967.056-.033.15-.114.284-.242.133-.127.322-.358.566-.691.244-.333.473-.699.684-1.1s.395-.917.55-1.551a8.315 8.315 0 0 0 .233-1.983c0-.933.097-1.755.292-2.466.194-.711.444-1.279.75-1.7a3.759 3.759 0 0 1 1.099-1.025c.428-.261.85-.438 1.267-.533a6.09 6.09 0 0 1 1.342-.142c.478 0 .925.048 1.342.142.417.095.839.272 1.267.533.428.262.794.604 1.099 1.025.306.421.556.989.75 1.7.195.711.292 1.533.292 2.466 0 .688.077 1.351.233 1.983.155.634.338 1.153.55 1.559.211.406.438.772.684 1.101.244.327.434.556.566.683.134.128.228.209.283.243z"/></svg><svg width="16" height="16" viewBox="-7.5 992.5 16 16" id="reddit" x="736" y="736" xmlns="http://www.w3.org/2000/svg"><path fill="#5F99CF" d="M7.735 1001.313c.083.308.12.622.12.944 0 2.827-3.292 5.121-7.355 5.121s-7.355-2.294-7.355-5.121a3.6 3.6 0 0 1 .12-.944 1.783 1.783 0 0 1-.765-1.454 1.76 1.76 0 0 1 1.762-1.763c.45 0 .862.173 1.169.45 1.304-.855 3.051-1.387 4.979-1.41l.997-2.999c.06-.187.255-.3.45-.262l2.639.532a1.44 1.44 0 1 1 1.282 2.091c-.757 0-1.38-.585-1.432-1.327l-2.302-.465-.817 2.459c1.672.112 3.187.615 4.341 1.38a1.76 1.76 0 0 1 2.932 1.313c0 .601-.307 1.133-.765 1.455zm-9.634.945a1.12 1.12 0 0 0 0-2.241 1.12 1.12 0 0 0 0 2.241zm5.113 1.859a.365.365 0 0 0-.502-.06c-.592.465-1.379.728-2.212.728-.832 0-1.62-.263-2.212-.728a.364.364 0 0 0-.502.06.366.366 0 0 0 .06.503c.72.562 1.665.869 2.654.869s1.935-.307 2.654-.869a.366.366 0 0 0 .06-.503zm.803-2.976c0-.622-.502-1.124-1.117-1.124a1.12 1.12 0 0 0 0 2.241 1.12 1.12 0 0 0 1.117-1.117z"/></svg><svg width="16" height="16" viewBox="-7.5 992.5 16 16" id="reddit--dark" x="752" y="752" xmlns="http://www.w3.org/2000/svg"><path d="M7.735 1001.313c.083.308.12.622.12.944 0 2.827-3.292 5.121-7.355 5.121s-7.355-2.294-7.355-5.121a3.6 3.6 0 0 1 .12-.944 1.783 1.783 0 0 1-.765-1.454 1.76 1.76 0 0 1 1.762-1.763c.45 0 .862.173 1.169.45 1.304-.855 3.051-1.387 4.979-1.41l.997-2.999c.06-.187.255-.3.45-.262l2.639.532a1.44 1.44 0 1 1 1.282 2.091c-.757 0-1.38-.585-1.432-1.327l-2.302-.465-.817 2.459c1.672.112 3.187.615 4.341 1.38a1.76 1.76 0 0 1 2.932 1.313c0 .601-.307 1.133-.765 1.455zm-9.634.945a1.12 1.12 0 0 0 0-2.241 1.12 1.12 0 0 0 0 2.241zm5.113 1.859a.365.365 0 0 0-.502-.06c-.592.465-1.379.728-2.212.728-.832 0-1.62-.263-2.212-.728a.364.364 0 0 0-.502.06.366.366 0 0 0 .06.503c.72.562 1.665.869 2.654.869s1.935-.307 2.654-.869a.366.366 0 0 0 .06-.503zm.803-2.976c0-.622-.502-1.124-1.117-1.124a1.12 1.12 0 0 0 0 2.241 1.12 1.12 0 0 0 1.117-1.117z"/></svg><svg width="16" height="16" viewBox="-7.5 992.5 16 16" id="reddit--light" x="768" y="768" xmlns="http://www.w3.org/2000/svg"><path fill="#FFF" d="M7.735 1001.313c.083.308.12.622.12.944 0 2.827-3.292 5.121-7.355 5.121s-7.355-2.294-7.355-5.121a3.6 3.6 0 0 1 .12-.944 1.783 1.783 0 0 1-.765-1.454 1.76 1.76 0 0 1 1.762-1.763c.45 0 .862.173 1.169.45 1.304-.855 3.051-1.387 4.979-1.41l.997-2.999c.06-.187.255-.3.45-.262l2.639.532a1.44 1.44 0 1 1 1.282 2.091c-.757 0-1.38-.585-1.432-1.327l-2.302-.465-.817 2.459c1.672.112 3.187.615 4.341 1.38a1.76 1.76 0 0 1 2.932 1.313c0 .601-.307 1.133-.765 1.455zm-9.634.945a1.12 1.12 0 0 0 0-2.241 1.12 1.12 0 0 0 0 2.241zm5.113 1.859a.365.365 0 0 0-.502-.06c-.592.465-1.379.728-2.212.728-.832 0-1.62-.263-2.212-.728a.364.364 0 0 0-.502.06.366.366 0 0 0 .06.503c.72.562 1.665.869 2.654.869s1.935-.307 2.654-.869a.366.366 0 0 0 .06-.503zm.803-2.976c0-.622-.502-1.124-1.117-1.124a1.12 1.12 0 0 0 0 2.241 1.12 1.12 0 0 0 1.117-1.117z"/></svg><svg width="16" height="16" viewBox="-7.5 992.5 16 16" id="rss" x="784" y="784" xmlns="http://www.w3.org/2000/svg"><g fill="#F60"><circle cx="-5.5" cy="1006.5" r="2"/><path d="M-7.5 995.5c7.2 0 13 5.8 13 13h3c0-8.8-7.2-16-16-16v3zm0 3v3c3.9 0 7 3.101 7 7h3c0-5.5-4.5-10-10-10z"/></g></svg><svg width="16" height="16" viewBox="-7.5 992.5 16 16" id="rss--dark" x="800" y="800" xmlns="http://www.w3.org/2000/svg"><circle cx="-5.5" cy="1006.5" r="2"/><path d="M-7.5 995.5c7.2 0 13 5.8 13 13h3c0-8.8-7.2-16-16-16v3zm0 3v3c3.9 0 7 3.101 7 7h3c0-5.5-4.5-10-10-10z"/></svg><svg width="16" height="16" viewBox="-7.5 992.5 16 16" id="rss--light" x="816" y="816" xmlns="http://www.w3.org/2000/svg"><g fill="#FFF"><circle cx="-5.5" cy="1006.5" r="2"/><path d="M-7.5 995.5c7.2 0 13 5.8 13 13h3c0-8.8-7.2-16-16-16v3zm0 3v3c3.9 0 7 3.101 7 7h3c0-5.5-4.5-10-10-10z"/></g></svg><svg width="16" height="16" viewBox="-7.5 992.5 16 16" id="search" x="832" y="832" xmlns="http://www.w3.org/2000/svg"><path fill="#AAA" d="M-2.883 994.449c1.299-1.3 2.871-1.949 4.716-1.949 1.845 0 3.418.649 4.717 1.949 1.301 1.301 1.95 2.871 1.95 4.716s-.649 3.416-1.95 4.715c-1.299 1.301-2.872 1.952-4.717 1.952-.978 0-1.9-.201-2.765-.602l-4.018 2.95c-.356.266-.75.367-1.184.299a1.564 1.564 0 0 1-1.05-.633c-.212-.288-.316-.608-.316-.958s.104-.67.316-.957l2.95-4c-.4-.866-.6-1.788-.6-2.767.001-1.844.652-3.414 1.951-4.715zm1.416 8.014c.912.913 2.012 1.369 3.3 1.369 1.289 0 2.389-.456 3.3-1.369.911-.907 1.366-2.008 1.366-3.298 0-1.287-.455-2.389-1.366-3.301-.911-.909-2.011-1.364-3.3-1.364-1.289 0-2.389.455-3.3 1.364-.911.912-1.366 2.014-1.366 3.301 0 1.29.455 2.391 1.366 3.298z"/></svg><svg width="16" height="16" viewBox="-7.5 992.5 16 16" id="search--dark" x="848" y="848" xmlns="http://www.w3.org/2000/svg"><path d="M-2.883 994.449c1.299-1.3 2.871-1.949 4.716-1.949 1.845 0 3.418.649 4.717 1.949 1.301 1.301 1.95 2.871 1.95 4.716s-.649 3.416-1.95 4.715c-1.299 1.301-2.872 1.952-4.717 1.952-.978 0-1.9-.201-2.765-.602l-4.018 2.95c-.356.266-.75.367-1.184.299a1.564 1.564 0 0 1-1.05-.633c-.212-.288-.316-.608-.316-.958s.104-.67.316-.957l2.95-4c-.4-.866-.6-1.788-.6-2.767.001-1.844.652-3.414 1.951-4.715zm1.416 8.014c.912.913 2.012 1.369 3.3 1.369 1.289 0 2.389-.456 3.3-1.369.911-.907 1.366-2.008 1.366-3.298 0-1.287-.455-2.389-1.366-3.301-.911-.909-2.011-1.364-3.3-1.364-1.289 0-2.389.455-3.3 1.364-.911.912-1.366 2.014-1.366 3.301 0 1.29.455 2.391 1.366 3.298z"/></svg><svg width="16" height="16" viewBox="-7.5 992.5 16 16" id="search--light" x="864" y="864" xmlns="http://www.w3.org/2000/svg"><path fill="#FFF" d="M-2.883 994.449c1.299-1.3 2.871-1.949 4.716-1.949 1.845 0 3.418.649 4.717 1.949 1.301 1.301 1.95 2.871 1.95 4.716s-.649 3.416-1.95 4.715c-1.299 1.301-2.872 1.952-4.717 1.952-.978 0-1.9-.201-2.765-.602l-4.018 2.95c-.356.266-.75.367-1.184.299a1.564 1.564 0 0 1-1.05-.633c-.212-.288-.316-.608-.316-.958s.104-.67.316-.957l2.95-4c-.4-.866-.6-1.788-.6-2.767.001-1.844.652-3.414 1.951-4.715zm1.416 8.014c.912.913 2.012 1.369 3.3 1.369 1.289 0 2.389-.456 3.3-1.369.911-.907 1.366-2.008 1.366-3.298 0-1.287-.455-2.389-1.366-3.301-.911-.909-2.011-1.364-3.3-1.364-1.289 0-2.389.455-3.3 1.364-.911.912-1.366 2.014-1.366 3.301 0 1.29.455 2.391 1.366 3.298z"/></svg><svg width="16" height="16" viewBox="-7.5 992.5 16 16" id="share" x="880" y="880" xmlns="http://www.w3.org/2000/svg"><path fill="#AAA" d="M8.5 1005.5a3.001 3.001 0 0 1-6 0v-.008l-5.195-2.594a3 3 0 1 1 0-4.796l5.195-2.594v-.008a3.001 3.001 0 0 1 6 0 3.001 3.001 0 0 1-4.805 2.398l-5.211 2.602 5.211 2.602A3 3 0 0 1 8.5 1005.5z"/></svg><svg width="16" height="16" viewBox="-7.5 992.5 16 16" id="share--dark" x="896" y="896" xmlns="http://www.w3.org/2000/svg"><path d="M8.5 1005.5a3.001 3.001 0 0 1-6 0v-.008l-5.195-2.594a3 3 0 1 1 0-4.796l5.195-2.594v-.008a3.001 3.001 0 0 1 6 0 3.001 3.001 0 0 1-4.805 2.398l-5.211 2.602 5.211 2.602A3 3 0 0 1 8.5 1005.5z"/></svg><svg width="16" height="16" viewBox="-7.5 992.5 16 16" id="share--light" x="912" y="912" xmlns="http://www.w3.org/2000/svg"><path fill="#FFF" d="M8.5 1005.5a3.001 3.001 0 0 1-6 0v-.008l-5.195-2.594a3 3 0 1 1 0-4.796l5.195-2.594v-.008a3.001 3.001 0 0 1 6 0 3.001 3.001 0 0 1-4.805 2.398l-5.211 2.602 5.211 2.602A3 3 0 0 1 8.5 1005.5z"/></svg><svg width="16" height="16" viewBox="-7.5 992.5 16 16" id="slack" x="928" y="928" xmlns="http://www.w3.org/2000/svg"><path fill="#6CC79F" d="M8.433 1000.999a1.297 1.297 0 0 0-1.642-.816l-1.622.542-1.078-3.212 1.621-.542a1.294 1.294 0 1 0-.824-2.455l-1.621.542-.562-1.674a1.296 1.296 0 0 0-2.46.822l.562 1.675-3.343 1.117-.562-1.674a1.295 1.295 0 0 0-1.641-.816 1.295 1.295 0 0 0-.818 1.639l.562 1.674-1.621.542a1.294 1.294 0 0 0 .378 2.522 1.32 1.32 0 0 0 .445-.066l1.621-.542 1.078 3.212-1.622.542a1.294 1.294 0 1 0 .823 2.456l1.621-.543.562 1.675a1.3 1.3 0 0 0 1.641.817 1.293 1.293 0 0 0 .818-1.639l-.562-1.675 3.342-1.117.562 1.675a1.297 1.297 0 0 0 2.459-.822l-.562-1.675 1.622-.541a1.3 1.3 0 0 0 .823-1.643zm-9.066 1.665l-1.078-3.212 3.343-1.118 1.078 3.212-3.343 1.118z"/></svg><svg width="16" height="16" viewBox="-7.5 992.5 16 16" id="slack--dark" x="944" y="944" xmlns="http://www.w3.org/2000/svg"><path d="M8.433 1000.999a1.297 1.297 0 0 0-1.642-.816l-1.622.542-1.078-3.212 1.621-.542a1.294 1.294 0 1 0-.824-2.455l-1.621.542-.562-1.674a1.296 1.296 0 0 0-2.46.822l.562 1.675-3.343 1.117-.562-1.674a1.295 1.295 0 0 0-1.641-.816 1.295 1.295 0 0 0-.818 1.639l.562 1.674-1.621.542a1.294 1.294 0 0 0 .378 2.522 1.32 1.32 0 0 0 .445-.066l1.621-.542 1.078 3.212-1.622.542a1.294 1.294 0 1 0 .823 2.456l1.621-.543.562 1.675a1.3 1.3 0 0 0 1.641.817 1.293 1.293 0 0 0 .818-1.639l-.562-1.675 3.342-1.117.562 1.675a1.297 1.297 0 0 0 2.459-.822l-.562-1.675 1.622-.541a1.3 1.3 0 0 0 .823-1.643zm-9.066 1.665l-1.078-3.212 3.343-1.118 1.078 3.212-3.343 1.118z"/></svg><svg width="16" height="16" viewBox="-7.5 992.5 16 16" id="slack--light" x="960" y="960" xmlns="http://www.w3.org/2000/svg"><path fill="#FFF" d="M8.433 1000.999a1.297 1.297 0 0 0-1.642-.816l-1.622.542-1.078-3.212 1.621-.542a1.294 1.294 0 1 0-.824-2.455l-1.621.542-.562-1.674a1.296 1.296 0 0 0-2.46.822l.562 1.675-3.343 1.117-.562-1.674a1.295 1.295 0 0 0-1.641-.816 1.295 1.295 0 0 0-.818 1.639l.562 1.674-1.621.542a1.294 1.294 0 0 0 .378 2.522 1.32 1.32 0 0 0 .445-.066l1.621-.542 1.078 3.212-1.622.542a1.294 1.294 0 1 0 .823 2.456l1.621-.543.562 1.675a1.3 1.3 0 0 0 1.641.817 1.293 1.293 0 0 0 .818-1.639l-.562-1.675 3.342-1.117.562 1.675a1.297 1.297 0 0 0 2.459-.822l-.562-1.675 1.622-.541a1.3 1.3 0 0 0 .823-1.643zm-9.066 1.665l-1.078-3.212 3.343-1.118 1.078 3.212-3.343 1.118z"/></svg><svg width="16" height="16" viewBox="656.5 1056.5 16 16" id="tag--dark" x="976" y="976" xmlns="http://www.w3.org/2000/svg"><path d="M661.231 1059.879c0-.373-.132-.691-.396-.955-.264-.265-.583-.396-.956-.396s-.692.132-.956.396a1.301 1.301 0 0 0-.396.955c0 .374.132.692.396.956s.583.396.956.396.691-.132.956-.396.396-.582.396-.956zm11.269 6.083c0 .374-.13.69-.391.951l-5.186 5.195a1.35 1.35 0 0 1-.961.392c-.373 0-.69-.131-.95-.392l-7.551-7.562c-.268-.26-.495-.615-.681-1.066-.187-.45-.28-.862-.28-1.235v-4.394a1.3 1.3 0 0 1 .401-.95c.268-.268.584-.401.951-.401h4.394c.373 0 .785.093 1.235.279.451.188.81.414 1.077.682l7.551 7.541c.261.274.391.595.391.96z"/></svg><svg width="16" height="16" viewBox="-7.5 992.5 16 16" id="twitter" x="992" y="992" xmlns="http://www.w3.org/2000/svg"><path fill="#55ACEE" d="M6.867 997.234v.43c0 4.336-3.297 9.336-9.328 9.336-1.852 0-3.594-.406-5.039-1.336.258.039.516.055.781.055 1.531 0 2.961-.664 4.07-1.555-1.422-.016-2.648-.984-3.055-2.281a3.227 3.227 0 0 0 1.484-.055 3.28 3.28 0 0 1-2.633-3.219v-.039c.445.242.945.391 1.484.406a3.266 3.266 0 0 1-1.469-2.719c0-.609.172-1.109.445-1.594 1.633 1.984 4.039 3.219 6.758 3.367a3.4 3.4 0 0 1-.07-.758 3.267 3.267 0 0 1 3.273-3.273c.945 0 1.797.406 2.414 1.031a6.571 6.571 0 0 0 2.07-.797 3.252 3.252 0 0 1-1.445 1.82 6.42 6.42 0 0 0 1.891-.523 6.587 6.587 0 0 1-1.631 1.704z"/></svg><svg width="16" height="16" viewBox="-7.5 992.5 16 16" id="twitter--dark" x="1008" y="1008" xmlns="http://www.w3.org/2000/svg"><path d="M6.867 997.234v.43c0 4.336-3.297 9.336-9.328 9.336-1.852 0-3.594-.406-5.039-1.336.258.039.516.055.781.055 1.531 0 2.961-.664 4.07-1.555-1.422-.016-2.648-.984-3.055-2.281a3.227 3.227 0 0 0 1.484-.055 3.28 3.28 0 0 1-2.633-3.219v-.039c.445.242.945.391 1.484.406a3.266 3.266 0 0 1-1.469-2.719c0-.609.172-1.109.445-1.594 1.633 1.984 4.039 3.219 6.758 3.367a3.4 3.4 0 0 1-.07-.758 3.267 3.267 0 0 1 3.273-3.273c.945 0 1.797.406 2.414 1.031a6.571 6.571 0 0 0 2.07-.797 3.252 3.252 0 0 1-1.445 1.82 6.42 6.42 0 0 0 1.891-.523 6.587 6.587 0 0 1-1.631 1.704z"/></svg><svg width="16" height="16" viewBox="-7.5 992.5 16 16" id="twitter--light" x="1024" y="1024" xmlns="http://www.w3.org/2000/svg"><path fill="#FFF" d="M6.867 997.234v.43c0 4.336-3.297 9.336-9.328 9.336-1.852 0-3.594-.406-5.039-1.336.258.039.516.055.781.055 1.531 0 2.961-.664 4.07-1.555-1.422-.016-2.648-.984-3.055-2.281a3.227 3.227 0 0 0 1.484-.055 3.28 3.28 0 0 1-2.633-3.219v-.039c.445.242.945.391 1.484.406a3.266 3.266 0 0 1-1.469-2.719c0-.609.172-1.109.445-1.594 1.633 1.984 4.039 3.219 6.758 3.367a3.4 3.4 0 0 1-.07-.758 3.267 3.267 0 0 1 3.273-3.273c.945 0 1.797.406 2.414 1.031a6.571 6.571 0 0 0 2.07-.797 3.252 3.252 0 0 1-1.445 1.82 6.42 6.42 0 0 0 1.891-.523 6.587 6.587 0 0 1-1.631 1.704z"/></svg><svg width="16" height="16" viewBox="-7.5 992.5 16 16" id="user" x="1040" y="1040" xmlns="http://www.w3.org/2000/svg"><path fill="#AAA" d="M7.84 1007.932l-.069.018c-.046.01-.115.025-.207.041-.092.018-.202.041-.328.07a6.79 6.79 0 0 1-.476.086c-.19.029-.394.055-.613.078-1.543.184-3.426.275-5.648.275-3.374 0-5.82-.189-7.34-.568-.138-.045-.244-.129-.319-.25s-.095-.256-.061-.406c.162-.758.443-1.385.847-1.879.402-.494.944-.955 1.623-1.379.208-.127.617-.316 1.227-.568.368-.15.656-.271.864-.363a3.21 3.21 0 0 0 .665-.414c.236-.184.389-.371.458-.568.138-.402-.029-.971-.501-1.707-1.462-2.322-1.722-4.293-.777-5.914a3.956 3.956 0 0 1 1.416-1.455 3.628 3.628 0 0 1 1.9-.527 3.6 3.6 0 0 1 1.892.527c.581.35 1.056.836 1.425 1.455.944 1.611.691 3.58-.76 5.914-.461.725-.633 1.293-.518 1.707.093.289.305.529.639.725.333.195.789.402 1.364.621.587.252.99.441 1.209.568.679.424 1.22.885 1.623 1.379s.685 1.121.847 1.879a.522.522 0 0 1-.061.406.58.58 0 0 1-.321.249z"/></svg><svg width="16" height="16" viewBox="-7.5 992.5 16 16" id="user--blue-green" x="1056" y="1056" xmlns="http://www.w3.org/2000/svg"><path fill="#00CCCD" d="M7.84 1007.932l-.069.018c-.046.01-.115.025-.207.041-.092.018-.202.041-.328.07a6.79 6.79 0 0 1-.476.086c-.19.029-.394.055-.613.078-1.543.184-3.426.275-5.648.275-3.374 0-5.82-.189-7.34-.568-.138-.045-.244-.129-.319-.25s-.095-.256-.061-.406c.162-.758.443-1.385.847-1.879.402-.494.944-.955 1.623-1.379.208-.127.617-.316 1.227-.568.368-.15.656-.271.864-.363a3.21 3.21 0 0 0 .665-.414c.236-.184.389-.371.458-.568.138-.402-.029-.971-.501-1.707-1.462-2.322-1.722-4.293-.777-5.914a3.956 3.956 0 0 1 1.416-1.455 3.628 3.628 0 0 1 1.9-.527 3.6 3.6 0 0 1 1.892.527c.581.35 1.056.836 1.425 1.455.944 1.611.691 3.58-.76 5.914-.461.725-.633 1.293-.518 1.707.093.289.305.529.639.725.333.195.789.402 1.364.621.587.252.99.441 1.209.568.679.424 1.22.885 1.623 1.379s.685 1.121.847 1.879a.522.522 0 0 1-.061.406.58.58 0 0 1-.321.249z"/></svg><svg width="16" height="16" viewBox="-7.5 992.5 16 16" id="user--dark" x="1072" y="1072" xmlns="http://www.w3.org/2000/svg"><path d="M7.84 1007.932l-.069.018c-.046.01-.115.025-.207.041-.092.018-.202.041-.328.07a6.79 6.79 0 0 1-.476.086c-.19.029-.394.055-.613.078-1.543.184-3.426.275-5.648.275-3.374 0-5.82-.189-7.34-.568-.138-.045-.244-.129-.319-.25s-.095-.256-.061-.406c.162-.758.443-1.385.847-1.879.402-.494.944-.955 1.623-1.379.208-.127.617-.316 1.227-.568.368-.15.656-.271.864-.363a3.21 3.21 0 0 0 .665-.414c.236-.184.389-.371.458-.568.138-.402-.029-.971-.501-1.707-1.462-2.322-1.722-4.293-.777-5.914a3.956 3.956 0 0 1 1.416-1.455 3.628 3.628 0 0 1 1.9-.527 3.6 3.6 0 0 1 1.892.527c.581.35 1.056.836 1.425 1.455.944 1.611.691 3.58-.76 5.914-.461.725-.633 1.293-.518 1.707.093.289.305.529.639.725.333.195.789.402 1.364.621.587.252.99.441 1.209.568.679.424 1.22.885 1.623 1.379s.685 1.121.847 1.879a.522.522 0 0 1-.061.406.58.58 0 0 1-.321.249z"/></svg><svg width="16" height="16" viewBox="-7.5 992.5 16 16" id="user--light" x="1088" y="1088" xmlns="http://www.w3.org/2000/svg"><path fill="#FFF" d="M7.84 1007.932l-.069.018c-.046.01-.115.025-.207.041-.092.018-.202.041-.328.07a6.79 6.79 0 0 1-.476.086c-.19.029-.394.055-.613.078-1.543.184-3.426.275-5.648.275-3.374 0-5.82-.189-7.34-.568-.138-.045-.244-.129-.319-.25s-.095-.256-.061-.406c.162-.758.443-1.385.847-1.879.402-.494.944-.955 1.623-1.379.208-.127.617-.316 1.227-.568.368-.15.656-.271.864-.363a3.21 3.21 0 0 0 .665-.414c.236-.184.389-.371.458-.568.138-.402-.029-.971-.501-1.707-1.462-2.322-1.722-4.293-.777-5.914a3.956 3.956 0 0 1 1.416-1.455 3.628 3.628 0 0 1 1.9-.527 3.6 3.6 0 0 1 1.892.527c.581.35 1.056.836 1.425 1.455.944 1.611.691 3.58-.76 5.914-.461.725-.633 1.293-.518 1.707.093.289.305.529.639.725.333.195.789.402 1.364.621.587.252.99.441 1.209.568.679.424 1.22.885 1.623 1.379s.685 1.121.847 1.879a.522.522 0 0 1-.061.406.58.58 0 0 1-.321.249z"/></svg><svg width="16" height="16" viewBox="-7.5 992.5 16 16" id="vk" x="1104" y="1104" xmlns="http://www.w3.org/2000/svg"><path fill="#4C75A3" d="M4.49 1001.452c.377.341.737.7 1.077 1.077.149.172.28.359.389.559.149.289 0 .599-.24.619H4.121a1.244 1.244 0 0 1-.998-.409c-.22-.229-.429-.469-.639-.698a1.458 1.458 0 0 0-.289-.26.33.33 0 0 0-.529.129 1.683 1.683 0 0 0-.17.748c0 .379-.129.479-.508.489a4.094 4.094 0 0 1-2.285-.489 5.054 5.054 0 0 1-1.536-1.437 19.352 19.352 0 0 1-1.995-3.601c-.13-.28 0-.439.279-.439h1.566c.2.005.373.138.429.329a9.7 9.7 0 0 0 1.058 1.995c.106.169.241.317.399.439a.239.239 0 0 0 .409-.12 1.4 1.4 0 0 0 .09-.409c.057-.48.057-.966 0-1.446a.6.6 0 0 0-.509-.549c-.15 0-.13-.09-.06-.17a.58.58 0 0 1 .489-.238h1.806c.279.06.349.18.389.469v1.995c0 .109.06.438.259.509.199.069.27-.08.359-.18a6.23 6.23 0 0 0 .997-1.557c.12-.249.229-.498.33-.758a.388.388 0 0 1 .409-.279h1.885c.289 0 .369.18.279.459a4.353 4.353 0 0 1-.708 1.167c-.29.398-.599.788-.888 1.187-.289.399-.239.549.09.878l-.039-.009zm3.99 4.509v-10.923a2.513 2.513 0 0 0-2.503-2.504H-4.997a2.513 2.513 0 0 0-2.503 2.504v10.923a2.513 2.513 0 0 0 2.503 2.504H5.977a2.512 2.512 0 0 0 2.523-2.504h-.02z"/></svg><svg width="16" height="16" viewBox="-7.5 992.5 16 16" id="vk--dark" x="1120" y="1120" xmlns="http://www.w3.org/2000/svg"><path d="M4.49 1001.452c.377.341.737.7 1.077 1.077.149.172.28.359.389.559.149.289 0 .599-.24.619H4.121a1.244 1.244 0 0 1-.998-.409c-.22-.229-.429-.469-.639-.698a1.458 1.458 0 0 0-.289-.26.33.33 0 0 0-.529.129 1.683 1.683 0 0 0-.17.748c0 .379-.129.479-.508.489a4.094 4.094 0 0 1-2.285-.489 5.054 5.054 0 0 1-1.536-1.437 19.352 19.352 0 0 1-1.995-3.601c-.13-.28 0-.439.279-.439h1.566c.2.005.373.138.429.329a9.7 9.7 0 0 0 1.058 1.995c.106.169.241.317.399.439a.239.239 0 0 0 .409-.12 1.4 1.4 0 0 0 .09-.409c.057-.48.057-.966 0-1.446a.6.6 0 0 0-.509-.549c-.15 0-.13-.09-.06-.17a.58.58 0 0 1 .489-.238h1.806c.279.06.349.18.389.469v1.995c0 .109.06.438.259.509.199.069.27-.08.359-.18a6.23 6.23 0 0 0 .997-1.557c.12-.249.229-.498.33-.758a.388.388 0 0 1 .409-.279h1.885c.289 0 .369.18.279.459a4.353 4.353 0 0 1-.708 1.167c-.29.398-.599.788-.888 1.187-.289.399-.239.549.09.878l-.039-.009zm3.99 4.509v-10.923a2.513 2.513 0 0 0-2.503-2.504H-4.997a2.513 2.513 0 0 0-2.503 2.504v10.923a2.513 2.513 0 0 0 2.503 2.504H5.977a2.512 2.512 0 0 0 2.523-2.504h-.02z"/></svg><svg width="16" height="16" viewBox="-7.5 992.5 16 16" id="vk--light" x="1136" y="1136" xmlns="http://www.w3.org/2000/svg"><path fill="#FFF" d="M4.49 1001.452c.377.341.737.7 1.077 1.077.149.172.28.359.389.559.149.289 0 .599-.24.619H4.121a1.244 1.244 0 0 1-.998-.409c-.22-.229-.429-.469-.639-.698a1.458 1.458 0 0 0-.289-.26.33.33 0 0 0-.529.129 1.683 1.683 0 0 0-.17.748c0 .379-.129.479-.508.489a4.094 4.094 0 0 1-2.285-.489 5.054 5.054 0 0 1-1.536-1.437 19.352 19.352 0 0 1-1.995-3.601c-.13-.28 0-.439.279-.439h1.566c.2.005.373.138.429.329a9.7 9.7 0 0 0 1.058 1.995c.106.169.241.317.399.439a.239.239 0 0 0 .409-.12 1.4 1.4 0 0 0 .09-.409c.057-.48.057-.966 0-1.446a.6.6 0 0 0-.509-.549c-.15 0-.13-.09-.06-.17a.58.58 0 0 1 .489-.238h1.806c.279.06.349.18.389.469v1.995c0 .109.06.438.259.509.199.069.27-.08.359-.18a6.23 6.23 0 0 0 .997-1.557c.12-.249.229-.498.33-.758a.388.388 0 0 1 .409-.279h1.885c.289 0 .369.18.279.459a4.353 4.353 0 0 1-.708 1.167c-.29.398-.599.788-.888 1.187-.289.399-.239.549.09.878l-.039-.009zm3.99 4.509v-10.923a2.513 2.513 0 0 0-2.503-2.504H-4.997a2.513 2.513 0 0 0-2.503 2.504v10.923a2.513 2.513 0 0 0 2.503 2.504H5.977a2.512 2.512 0 0 0 2.523-2.504h-.02z"/></svg><svg width="16" height="16" viewBox="-7.5 992.5 16 16" id="whatsapp" x="1152" y="1152" xmlns="http://www.w3.org/2000/svg"><path fill="#4DC247" d="M8.461 1000.461c0 4.4-3.561 7.961-7.961 7.961-1.5 0-2.9-.412-4.097-1.135l-3.786 1.213 1.229-3.662a7.962 7.962 0 0 1-1.306-4.377c0-4.4 3.561-7.961 7.961-7.961s7.96 3.561 7.96 7.961zm-3.475 2.247c-.046-.094-.194-.155-.412-.272-.218-.116-1.291-.699-1.485-.777-.202-.085-.35-.124-.505.094s-.599.699-.739.84c-.132.147-.264.155-.482.038-.217-.116-.925-.381-1.741-1.166a6.532 6.532 0 0 1-1.174-1.586c-.125-.226 0-.342.108-.442.109-.102.233-.257.35-.382.117-.124.155-.218.233-.357.085-.147.054-.279 0-.389-.055-.116-.451-1.221-.622-1.671-.171-.451-.357-.39-.482-.39-.132-.008-.28-.031-.428-.038a.786.786 0 0 0-.599.256c-.218.218-.809.731-.848 1.819-.039 1.097.715 2.177.816 2.332.109.148 1.446 2.512 3.662 3.491 2.223.972 2.239.677 2.643.653.412-.023 1.33-.49 1.54-1.003.204-.506.22-.956.165-1.05z"/></svg><svg width="16" height="16" viewBox="-7.5 992.5 16 16" id="whatsapp--dark" x="1168" y="1168" xmlns="http://www.w3.org/2000/svg"><path d="M8.461 1000.461c0 4.4-3.561 7.961-7.961 7.961-1.5 0-2.9-.412-4.097-1.135l-3.786 1.213 1.229-3.662a7.962 7.962 0 0 1-1.306-4.377c0-4.4 3.561-7.961 7.961-7.961s7.96 3.561 7.96 7.961zm-3.475 2.247c-.046-.094-.194-.155-.412-.272-.218-.116-1.291-.699-1.485-.777-.202-.085-.35-.124-.505.094s-.599.699-.739.84c-.132.147-.264.155-.482.038-.217-.116-.925-.381-1.741-1.166a6.532 6.532 0 0 1-1.174-1.586c-.125-.226 0-.342.108-.442.109-.102.233-.257.35-.382.117-.124.155-.218.233-.357.085-.147.054-.279 0-.389-.055-.116-.451-1.221-.622-1.671-.171-.451-.357-.39-.482-.39-.132-.008-.28-.031-.428-.038a.786.786 0 0 0-.599.256c-.218.218-.809.731-.848 1.819-.039 1.097.715 2.177.816 2.332.109.148 1.446 2.512 3.662 3.491 2.223.972 2.239.677 2.643.653.412-.023 1.33-.49 1.54-1.003.204-.506.22-.956.165-1.05z"/></svg><svg width="16" height="16" viewBox="-7.5 992.5 16 16" id="whatsapp--light" x="1184" y="1184" xmlns="http://www.w3.org/2000/svg"><path fill="#FFF" d="M8.461 1000.461c0 4.4-3.561 7.961-7.961 7.961-1.5 0-2.9-.412-4.097-1.135l-3.786 1.213 1.229-3.662a7.962 7.962 0 0 1-1.306-4.377c0-4.4 3.561-7.961 7.961-7.961s7.96 3.561 7.96 7.961zm-3.475 2.247c-.046-.094-.194-.155-.412-.272-.218-.116-1.291-.699-1.485-.777-.202-.085-.35-.124-.505.094s-.599.699-.739.84c-.132.147-.264.155-.482.038-.217-.116-.925-.381-1.741-1.166a6.532 6.532 0 0 1-1.174-1.586c-.125-.226 0-.342.108-.442.109-.102.233-.257.35-.382.117-.124.155-.218.233-.357.085-.147.054-.279 0-.389-.055-.116-.451-1.221-.622-1.671-.171-.451-.357-.39-.482-.39-.132-.008-.28-.031-.428-.038a.786.786 0 0 0-.599.256c-.218.218-.809.731-.848 1.819-.039 1.097.715 2.177.816 2.332.109.148 1.446 2.512 3.662 3.491 2.223.972 2.239.677 2.643.653.412-.023 1.33-.49 1.54-1.003.204-.506.22-.956.165-1.05z"/></svg><svg width="16" height="16" viewBox="-7.5 992.5 16 16" id="xing" x="1200" y="1200" xmlns="http://www.w3.org/2000/svg"><path fill="#B0D400" d="M7.261 993.011a.33.33 0 0 0-.3-.509H4.629a.713.713 0 0 0-.62.439l-5.143 9.115 3.282 6.003a.708.708 0 0 0 .641.44H5.14c.123.008.24-.05.31-.15a.339.339 0 0 0 0-.36l-3.312-5.933 5.123-9.045z"/><path fill="#006466" d="M-2.124 996.093a.728.728 0 0 0-.641-.44h-2.311a.33.33 0 0 0-.31.15.318.318 0 0 0 0 .359l1.561 2.702-2.441 4.342a.34.34 0 0 0 0 .351.32.32 0 0 0 .3.16h2.311a.743.743 0 0 0 .631-.45l2.491-4.412-1.591-2.762z"/></svg><svg width="16" height="16" viewBox="-7.5 992.5 16 16" id="xing--dark" x="1216" y="1216" xmlns="http://www.w3.org/2000/svg"><path d="M7.261 993.011a.33.33 0 0 0-.3-.509H4.629a.713.713 0 0 0-.62.439l-5.143 9.115 3.282 6.003a.708.708 0 0 0 .641.44H5.14c.123.008.24-.05.31-.15a.339.339 0 0 0 0-.36l-3.312-5.933 5.123-9.045zM-2.124 996.093a.728.728 0 0 0-.641-.44h-2.311a.33.33 0 0 0-.31.15.318.318 0 0 0 0 .359l1.561 2.702-2.441 4.342a.34.34 0 0 0 0 .351.32.32 0 0 0 .3.16h2.311a.743.743 0 0 0 .631-.45l2.491-4.412-1.591-2.762z"/></svg><svg width="16" height="16" viewBox="-7.5 992.5 16 16" id="xing--light" x="1232" y="1232" xmlns="http://www.w3.org/2000/svg"><g fill="#FFF"><path d="M7.261 993.011a.33.33 0 0 0-.3-.509H4.629a.713.713 0 0 0-.62.439l-5.143 9.115 3.282 6.003a.708.708 0 0 0 .641.44H5.14c.123.008.24-.05.31-.15a.339.339 0 0 0 0-.36l-3.312-5.933 5.123-9.045zM-2.124 996.093a.728.728 0 0 0-.641-.44h-2.311a.33.33 0 0 0-.31.15.318.318 0 0 0 0 .359l1.561 2.702-2.441 4.342a.34.34 0 0 0 0 .351.32.32 0 0 0 .3.16h2.311a.743.743 0 0 0 .631-.45l2.491-4.412-1.591-2.762z"/></g></svg><svg width="16" height="16" viewBox="-7.5 992.5 16 16" id="youtube" x="1248" y="1248" xmlns="http://www.w3.org/2000/svg"><path fill="#CD201F" d="M8.5 1000.5c0 5.664 0 5.664-8 5.664s-8 0-8-5.664 0-5.664 8-5.664 8 0 8 5.664zm-5 0l-5-3v6l5-3z"/></svg><svg width="16" height="16" viewBox="-7.5 992.5 16 16" id="youtube--dark" x="1264" y="1264" xmlns="http://www.w3.org/2000/svg"><path d="M8.5 1000.5c0 5.664 0 5.664-8 5.664s-8 0-8-5.664 0-5.664 8-5.664 8 0 8 5.664zm-5 0l-5-3v6l5-3z"/></svg><svg width="16" height="16" viewBox="-7.5 992.5 16 16" id="youtube--light" x="1280" y="1280" xmlns="http://www.w3.org/2000/svg"><path fill="#FFF" d="M8.5 1000.5c0 5.664 0 5.664-8 5.664s-8 0-8-5.664 0-5.664 8-5.664 8 0 8 5.664zm-5 0l-5-3v6l5-3z"/></svg></svg>